<svg xmlns="http://www.w3.org/2000/svg" viewBox="0 0 22 22"><g transform="matrix(.13811 0 0 .13811 4.955 5.808)" fill-opacity=".8"><g transform="matrix(6.5167 0 0 6.5167-28.01-34.23)"><g transform="matrix(1.17633 0 0 1.17633 1 1.589)" stroke-opacity=".85" fill="#000" stroke="none" fill-opacity="0" stroke-width=".73"><path d="m11.243 12.993c-.192 0-.384-.073-.53-.22-.293-.293-.293-.768 0-1.061 2.047-2.047 2.047-5.378 0-7.425-.293-.293-.293-.768 0-1.061.293-.293.768-.293 1.061 0 1.275 1.275 1.977 2.97 1.977 4.773 0 1.803-.702 3.498-1.977 4.773-.146.146-.338.22-.53.22z"/><path d="m8.578 11.578c-.192 0-.384-.073-.53-.22-.293-.293-.293-.768 0-1.061 1.267-1.267 1.267-3.329 0-4.596-.293-.293-.293-.768 0-1.061.293-.293.768-.293 1.061 0 1.852 1.852 1.852 4.865 0 6.718-.146.146-.338.22-.53.22z"/></g><g transform="translate(16 4)"><g fill="#f2f2f2" fill-opacity="0"><path d="m-1.773 12.874c-.226 0-.452-.086-.623-.259-.345-.345-.345-.903 0-1.248 2.408-2.408 2.408-6.326 0-8.734-.345-.345-.345-.903 0-1.248.345-.345.903-.345 1.248 0 1.5 1.5 2.326 3.494 2.326 5.615 0 2.121-.826 4.115-2.326 5.615-.172.172-.398.259-.623.259z"/><path d="m-4.908 11.209c-.226 0-.452-.086-.623-.259-.345-.345-.345-.903 0-1.248 1.49-1.49 1.49-3.916 0-5.406-.345-.345-.345-.903 0-1.248.345-.345.903-.345 1.248 0 2.179 2.179 2.179 5.723 0 7.903-.172.172-.398.259-.623.259z"/></g><path d="m-7.353 15.235c-.153 0-.303-.06-.416-.172l-4.534-4.534h-2.109c-.325 0-.588-.263-.588-.588v-5.882c0-.325.263-.588.588-.588h2.109l4.534-4.534c.168-.168.421-.219.641-.127.22.092.363.306.363.543v15.292c0 .238-.144.453-.363.543-.073.031-.149.045-.225.045" fill="#fff" fill-opacity="1"/></g></g><path d="m14.75 9.674v1.326h-1.326l-1.674-1.674-1.674 1.674h-1.326v-1.326l1.674-1.674-1.674-1.674v-1.326h1.326l1.674 1.674 1.674-1.674h1.326v1.326l-1.674 1.674 1.674 1.674" fill="#fff" fill-opacity="1" transform="matrix(8.22579 0 0 8.22579-32.543-28.351)"/></g></svg>