<?xml version="1.0" encoding="utf-8"?>
<!-- Generator: Adobe Illustrator 22.0.1, SVG Export Plug-In . SVG Version: 6.00 Build 0)  -->
<svg version="1.1" id="Layer_1" xmlns="http://www.w3.org/2000/svg" xmlns:xlink="http://www.w3.org/1999/xlink" x="0px" y="0px"
	 viewBox="0 0 24 24" style="enable-background:new 0 0 24 24;" xml:space="preserve">
<style type="text/css">
	.st0{fill:#d9dbe0;}
</style>
<g>
	<path class="st0" d="M21.6,6.3V19c0,1.9-1.6,3.5-3.5,3.5h-6.4c-0.9,0-1.8-0.4-2.5-1l-6.9-7c0,0,1.1-1.1,1.1-1.1
		c0.2-0.2,0.4-0.3,0.7-0.3c0.2,0,0.4,0.1,0.5,0.1c0,0,3.8,2.2,3.8,2.2V5c0-0.7,0.6-1.3,1.3-1.3s1.3,0.6,1.3,1.3v6.1H12V2.8
		c0-0.7,0.6-1.3,1.3-1.3s1.3,0.6,1.3,1.3v8.3h0.9V3.7c0-0.7,0.6-1.3,1.3-1.3s1.3,0.6,1.3,1.3v7.4H19V6.3C19,5.6,19.6,5,20.3,5
		S21.6,5.6,21.6,6.3z"/>
</g>
</svg>
