<?xml version="1.0" encoding="utf-8"?>
<!-- Generator: Adobe Illustrator 22.0.1, SVG Export Plug-In . SVG Version: 6.00 Build 0)  -->
<svg version="1.1" id="Layer_1" xmlns="http://www.w3.org/2000/svg" xmlns:xlink="http://www.w3.org/1999/xlink" x="0px" y="0px"
	 viewBox="0 0 24 24" style="enable-background:new 0 0 24 24;" xml:space="preserve">
<style type="text/css">
	.st0{fill:#d9dbe0;}
	.st1{fill:none;}
</style>
<path class="st0" d="M15.5,5.5l-1.8,1.8L12,5.5l-1.8,1.8L8.5,5.5L12,2L15.5,5.5z M18.5,15.5l-1.8-1.8l1.8-1.8l-1.8-1.8l1.8-1.8
	L22,12L18.5,15.5z M8.5,18.5l1.8-1.8l1.8,1.8l1.8-1.8l1.8,1.8L12,22L8.5,18.5z M5.5,8.5l1.8,1.8L5.5,12l1.8,1.8l-1.8,1.8L2,12
	L5.5,8.5z"/>
<circle class="st0" cx="12" cy="12" r="3"/>
<path class="st1" d="M0,0h24v24H0V0z"/>
</svg>
