<?xml version="1.0" encoding="utf-8"?>
<!-- Generator: Adobe Illustrator 22.0.1, SVG Export Plug-In . SVG Version: 6.00 Build 0)  -->
<svg version="1.1" id="Layer_1" xmlns="http://www.w3.org/2000/svg" xmlns:xlink="http://www.w3.org/1999/xlink" x="0px" y="0px"
	 viewBox="0 0 24 24" style="enable-background:new 0 0 24 24;" xml:space="preserve">
<style type="text/css">
	.st0{fill:none;}
	.st1{fill:#d9dbe0;}
</style>
<path class="st0" d="M0,0h24v24H0V0z"/>
<path class="st1" d="M15.6,5.6L11,1v3.1C7.1,4.6,4,7.9,4,12s3.1,7.4,7,7.9v-2C8.2,17.4,6,15,6,12s2.2-5.4,5-5.9V10L15.6,5.6z
	 M19.9,11c-0.2-1.4-0.7-2.7-1.6-3.9l-1.4,1.4c0.5,0.8,0.9,1.6,1,2.5H19.9z M13,17.9v2c1.4-0.2,2.7-0.7,3.9-1.6l-1.4-1.4
	C14.7,17.4,13.9,17.8,13,17.9z M16.9,15.5l1.4,1.4c0.9-1.2,1.5-2.5,1.6-3.9h-2C17.8,13.9,17.4,14.7,16.9,15.5z"/>
</svg>
