<?xml version="1.0" encoding="utf-8"?>
<!-- Generator: Adobe Illustrator 22.0.1, SVG Export Plug-In . SVG Version: 6.00 Build 0)  -->
<svg version="1.1" id="Layer_1" xmlns="http://www.w3.org/2000/svg" xmlns:xlink="http://www.w3.org/1999/xlink" x="0px" y="0px"
	 viewBox="0 0 24 24" style="enable-background:new 0 0 24 24;" xml:space="preserve">
<style type="text/css">
	.st0{fill:none;}
	.st1{fill:#d9dbe0;}
</style>
<path class="st0" d="M0,0h24v24H0V0z"/>
<path class="st1" d="M12,10c-1.1,0-2,0.9-2,2s0.9,2,2,2s2-0.9,2-2S13.1,10,12,10z M19,3H5C3.9,3,3,3.9,3,5v14c0,1.1,0.9,2,2,2h14
	c1.1,0,2-0.9,2-2V5C21,3.9,20.1,3,19,3z M17.3,12c0,0.2,0,0.5,0,0.7l1.5,1.2c0.1,0.1,0.2,0.3,0.1,0.4l-1.4,2.4
	c-0.1,0.1-0.3,0.2-0.4,0.1l-1.7-0.7c-0.4,0.3-0.8,0.5-1.2,0.7l-0.3,1.9c0,0.2-0.2,0.3-0.4,0.3h-2.8c-0.2,0-0.3-0.1-0.4-0.3L10,16.9
	c-0.4-0.2-0.8-0.4-1.2-0.7l-1.7,0.7c-0.2,0.1-0.3,0-0.4-0.1l-1.4-2.4c-0.1-0.1-0.1-0.3,0.1-0.4l1.5-1.2c0-0.2-0.1-0.5-0.1-0.7
	s0-0.5,0.1-0.7l-1.5-1.2C5.2,10,5.1,9.9,5.2,9.7l1.4-2.4c0.1-0.2,0.3-0.2,0.4-0.2l1.7,0.7C9.2,7.6,9.6,7.3,10,7.1l0.3-1.8
	c0-0.2,0.2-0.3,0.4-0.3h2.8c0.2,0,0.3,0.1,0.4,0.3L14,7.1c0.4,0.2,0.8,0.4,1.2,0.7l1.7-0.7c0.2-0.1,0.3,0,0.4,0.2l1.4,2.4
	c0.1,0.1,0,0.3-0.1,0.4l-1.5,1.2C17.2,11.5,17.3,11.8,17.3,12z"/>
</svg>
