<?xml version="1.0" encoding="UTF-8" standalone="no"?>
<svg
   xmlns:dc="http://purl.org/dc/elements/1.1/"
   xmlns:cc="http://creativecommons.org/ns#"
   xmlns:rdf="http://www.w3.org/1999/02/22-rdf-syntax-ns#"
   xmlns:svg="http://www.w3.org/2000/svg"
   xmlns="http://www.w3.org/2000/svg"
   xmlns:sodipodi="http://sodipodi.sourceforge.net/DTD/sodipodi-0.dtd"
   xmlns:inkscape="http://www.inkscape.org/namespaces/inkscape"
   width="20"
   height="20"
   id="svg3026"
   version="1.1"
   inkscape:version="0.91 r13725"
   sodipodi:docname="backarrow.svg">
  <metadata
     id="metadata3038">
    <rdf:RDF>
      <cc:Work
         rdf:about="">
        <dc:format>image/svg+xml</dc:format>
        <dc:type
           rdf:resource="http://purl.org/dc/dcmitype/StillImage" />
        <dc:title />
      </cc:Work>
    </rdf:RDF>
  </metadata>
  <defs
     id="defs3036">
    <linearGradient
       id="linearGradient4006">
      <stop
         style="stop-color:#252525;stop-opacity:1;"
         offset="0"
         id="stop4008" />
      <stop
         style="stop-color:#4a4a4a;stop-opacity:1;"
         offset="1"
         id="stop4010" />
    </linearGradient>
  </defs>
  <sodipodi:namedview
     pagecolor="#ffffff"
     bordercolor="#666666"
     borderopacity="1"
     objecttolerance="10"
     gridtolerance="10"
     guidetolerance="10"
     inkscape:pageopacity="0"
     inkscape:pageshadow="2"
     inkscape:window-width="1920"
     inkscape:window-height="1137"
     id="namedview3034"
     showgrid="true"
     inkscape:zoom="26.304372"
     inkscape:cx="11.841239"
     inkscape:cy="6.8249439"
     inkscape:window-x="1912"
     inkscape:window-y="-8"
     inkscape:window-maximized="1"
     inkscape:current-layer="g3028">
    <inkscape:grid
       type="xygrid"
       id="grid3040" />
  </sodipodi:namedview>
  <g
     id="g3028"
     stroke-width="2.23"
     stroke="#d40000">
    <path
       inkscape:connector-curvature="0"
       id="path4003"
       style="font-size:11.38508987px;font-style:normal;font-variant:normal;font-weight:normal;font-stretch:normal;text-align:start;line-height:125%;letter-spacing:0px;word-spacing:0px;writing-mode:lr-tb;text-anchor:start;fill:#f9f9f9;fill-opacity:1;stroke:none;font-family:Segoe UI Symbol;-inkscape-font-specification:Segoe UI Symbol"
       d="m 1.731867,9.9956035 c 2e-5,0.7560365 0.09966,1.4842425 0.298902,2.1846165 0.199287,0.700357 0.477675,1.358232 0.835165,1.973627 0.357528,0.615372 0.786831,1.175079 1.287912,1.67912 0.501116,0.504017 1.057891,0.936251 1.67033,1.296703 0.612469,0.360426 1.270344,0.640279 1.973627,0.839561 0.703309,0.199253 1.432978,0.298886 2.18901,0.298901 0.756055,-1.5e-5 1.484259,-0.09965 2.184616,-0.298901 0.700375,-0.199282 1.355319,-0.479135 1.964834,-0.839561 0.609531,-0.360452 1.167773,-0.792686 1.674726,-1.296703 0.506965,-0.504041 0.940664,-1.063748 1.301099,-1.67912 0.360444,-0.615395 0.641762,-1.27327 0.843956,-1.973627 0.202201,-0.700374 0.3033,-1.42858 0.303296,-2.1846165 4e-6,-0.756049 -0.09963,-1.484254 -0.298901,-2.184615 -0.199263,-0.70037 -0.479116,-1.356779 -0.83956,-1.969231 -0.360435,-0.612454 -0.792669,-1.169231 -1.296704,-1.67033 -0.504022,-0.501098 -1.063729,-0.931867 -1.67912,-1.292307 -0.615377,-0.360439 -1.273251,-0.640292 -1.973626,-0.839561 -0.700357,-0.199264 -1.428561,-0.298899 -2.184616,-0.2989 -0.756032,10e-7 -1.485701,0.09964 -2.18901,0.2989 -0.703283,0.199269 -1.361158,0.477658 -1.973627,0.835165 -0.612439,0.357511 -1.169214,0.786814 -1.67033,1.287912 -0.501081,0.501099 -0.930384,1.05934 -1.287912,1.674726 -0.35749,0.615382 -0.635878,1.273256 -0.835165,1.973626 -0.199247,0.700361 -0.298882,1.428566 -0.298902,2.184615 z m 2.769231,0.035172 0,-0.035172 4.026374,-4.210988 2.918682,0 -3.068132,3.138462 6.672527,0 0,2.1802195 -6.672527,0 3.068132,3.138461 -2.918682,0 z M 0,9.9868115 c 2.0999981e-5,-0.90843 0.120171,-1.784619 0.360439,-2.628572 0.240315,-0.843958 0.58024,-1.636632 1.01978,-2.378021 0.43958,-0.741393 0.964123,-1.416851 1.573627,-2.026375 C 3.563387,2.3443225 4.238845,1.8197795 4.980218,1.3802185 5.721627,0.94065953 6.515765,0.60073453 7.362637,0.36043753 8.209538,0.12014953 9.087192,2.5255985e-6 9.995604,-4.7440151e-7 10.90404,2.5255985e-6 11.781694,0.12015453 12.628571,0.36043853 c 0.846895,0.240297 1.641033,0.577292 2.382418,1.01098997 0.741398,0.433701 1.41832,0.955312 2.030769,1.564835 0.612458,0.609524 1.138465,1.284982 1.578022,2.026374 0.439563,0.74139 0.77949,1.535528 1.01978,2.382416 0.240295,0.846883 0.360442,1.727468 0.36044,2.641759 2e-6,0.9084175 -0.120145,1.7860735 -0.36044,2.6329675 -0.24029,0.846877 -0.580217,1.641015 -1.01978,2.382417 -0.439557,0.74138 -0.965564,1.418303 -1.578022,2.03077 -0.612449,0.61244 -1.289371,1.138447 -2.030769,1.578022 -0.741385,0.439545 -1.535523,0.780937 -2.382418,1.024176 C 11.781694,19.878372 10.90404,19.999984 9.995604,20 9.087192,19.999984 8.209538,19.879837 7.362637,19.63956 6.515765,19.399252 5.721627,19.06079 4.980218,18.624176 4.238845,18.187531 3.563387,17.66299 2.953846,17.050549 2.344342,16.438082 1.819799,15.761159 1.380219,15.019779 0.940679,14.278377 0.600754,13.482774 0.360439,12.632967 0.120168,11.783143 2.0999981e-5,10.901091 0,9.9868125 z" />
  </g>
</svg>
